<?xml version="1.0" standalone="no"?>
<!DOCTYPE svg PUBLIC "-//W3C//DTD SVG 20010904//EN"
 "http://www.w3.org/TR/2001/REC-SVG-20010904/DTD/svg10.dtd">
<svg version="1.0" xmlns="http://www.w3.org/2000/svg"
 width="512.000000pt" height="512.000000pt" viewBox="0 0 512.000000 512.000000"
 preserveAspectRatio="xMidYMid meet">

<g transform="translate(0.000000,512.000000) scale(0.100000,-0.100000)"
fill="#000000" stroke="none">
<path d="M2330 5005 c-557 -68 -1050 -376 -1363 -850 -140 -212 -233 -448
-284 -720 -23 -126 -28 -417 -9 -562 51 -383 210 -730 471 -1026 l87 -98 -206
-555 c-113 -306 -206 -566 -206 -578 0 -13 9 -31 20 -41 17 -16 37 -17 237
-11 120 3 279 9 353 12 l135 6 255 -232 c140 -128 265 -237 278 -243 15 -7 29
-7 46 1 24 11 33 32 307 779 57 156 106 283 109 283 3 0 52 -127 109 -283 274
-747 283 -768 307 -779 17 -8 31 -8 47 -1 12 6 137 115 277 243 l255 231 135
-5 c74 -3 233 -9 353 -12 200 -6 220 -5 237 11 11 10 20 28 20 41 0 12 -93
272 -206 578 l-206 555 87 98 c157 177 295 408 374 625 83 228 116 438 108
703 -9 302 -69 543 -200 799 -367 718 -1134 1128 -1927 1031z m415 -115 c511
-57 968 -324 1268 -741 134 -188 250 -459 297 -695 28 -138 38 -401 21 -541
-84 -687 -548 -1262 -1197 -1482 -1075 -363 -2214 356 -2345 1481 -16 144 -7
404 21 542 47 236 163 507 297 695 376 522 1012 811 1638 741z m-1330 -3290
c265 -204 622 -344 953 -376 39 -4 72 -9 72 -13 1 -16 -345 -941 -351 -939 -4
2 -109 95 -233 208 -125 112 -233 208 -241 213 -8 4 -156 4 -327 -2 -172 -5
-315 -8 -317 -6 -5 6 352 975 359 975 3 0 41 -27 85 -60z m2559 -426 c98 -266
177 -486 175 -489 -2 -2 -145 1 -317 6 -171 6 -318 6 -326 2 -8 -4 -116 -100
-241 -213 -125 -113 -230 -206 -234 -208 -6 -2 -332 866 -347 924 -5 20 0 22
68 28 335 33 687 171 953 376 44 33 82 60 85 60 3 0 85 -219 184 -486z"/>
<path d="M2330 4516 c-303 -54 -562 -189 -778 -408 -199 -202 -337 -468 -388
-748 -24 -127 -23 -363 0 -485 86 -455 368 -830 769 -1024 238 -115 366 -145
627 -145 152 0 202 4 282 22 297 65 554 210 753 424 184 198 310 448 360 718
24 126 24 360 1 490 -51 284 -190 549 -397 757 -192 193 -438 328 -709 388
-101 23 -417 29 -520 11z m446 -121 c402 -70 754 -328 938 -689 159 -311 185
-694 70 -1018 -133 -373 -441 -676 -814 -801 -146 -48 -233 -61 -410 -61 -181
0 -262 12 -416 64 -371 126 -675 425 -808 798 -93 260 -95 566 -5 839 147 445
538 783 1004 867 109 19 331 20 441 1z"/>
<path d="M2519 4004 c-8 -9 -63 -148 -124 -308 l-110 -291 -310 -13 c-170 -7
-320 -17 -332 -22 -23 -10 -39 -50 -30 -74 3 -8 116 -103 251 -211 136 -109
246 -204 246 -211 0 -8 -36 -145 -80 -303 -44 -159 -80 -298 -80 -308 0 -25
30 -53 57 -53 11 0 140 79 287 175 l266 175 73 -47 c39 -26 159 -104 265 -175
107 -71 203 -128 216 -128 27 0 56 29 56 54 0 10 -36 149 -80 308 -45 160 -80
297 -78 305 2 9 111 101 242 207 132 105 244 198 249 207 15 23 0 68 -26 79
-12 5 -161 15 -332 22 l-310 13 -110 291 c-60 160 -116 299 -124 308 -7 9 -26
16 -41 16 -15 0 -34 -7 -41 -16z m131 -451 c46 -124 92 -235 101 -246 14 -18
35 -21 260 -29 134 -5 250 -12 258 -14 7 -2 -75 -75 -188 -165 -186 -149 -201
-163 -201 -192 0 -18 29 -135 65 -262 35 -126 62 -231 61 -232 -1 -1 -96 61
-211 137 -130 87 -220 140 -235 140 -15 0 -105 -53 -235 -140 -115 -76 -210
-138 -211 -137 -1 1 26 106 61 232 36 127 65 244 65 262 0 29 -15 43 -201 192
-111 89 -200 162 -198 162 2 1 119 7 258 14 232 12 256 14 271 32 8 11 54 122
100 246 47 125 87 227 90 227 3 0 43 -102 90 -227z"/>
</g>
</svg>
