<svg width="122" height="122" viewBox="0 0 122 122" fill="none" xmlns="http://www.w3.org/2000/svg">
<path d="M65.0115 10.5366C64.4376 10.4623 63.9341 10.3171 63.5011 10.101C63.0681 9.88494 62.6423 9.61335 62.2238 9.28622C62.3252 8.94173 62.4087 8.59021 62.4743 8.23166C62.5399 7.87311 62.5908 7.55502 62.627 7.27737C62.7521 7.25593 62.8986 7.25137 63.0664 7.26369C63.2355 7.26675 63.3894 7.27728 63.5282 7.29525C63.5013 7.79056 63.5309 8.21319 63.617 8.56315C63.7124 8.91431 63.8921 9.19638 64.1561 9.40938C64.4293 9.62358 64.802 9.76124 65.274 9.82237C65.8849 9.90147 66.3375 9.82361 66.6317 9.58878C66.9351 9.35514 67.1116 9.0486 67.161 8.66914C67.2105 8.28969 67.1405 7.96064 66.951 7.68199C66.7614 7.40334 66.5022 7.15332 66.1734 6.93194C65.8458 6.70129 65.4991 6.47288 65.1333 6.24669C64.7675 6.02051 64.4238 5.76896 64.1023 5.49204C63.7819 5.20587 63.5336 4.87255 63.3573 4.4921C63.1811 4.11165 63.1285 3.6484 63.1998 3.10236C63.271 2.55632 63.4517 2.10915 63.7418 1.76086C64.032 1.41257 64.4026 1.16882 64.8537 1.0296C65.3153 0.882319 65.8377 0.846435 66.4208 0.921944C66.7448 0.963894 67.0559 1.03241 67.3541 1.12749C67.6523 1.22257 67.9203 1.33257 68.1581 1.45748C68.4052 1.58359 68.6002 1.71236 68.7431 1.8438C68.7057 2.1307 68.6681 2.45522 68.6302 2.81736C68.5924 3.1795 68.5763 3.48329 68.582 3.72871C68.4648 3.7606 68.3165 3.77904 68.1371 3.78404C67.9668 3.79023 67.8077 3.78373 67.6596 3.76456C67.6358 3.22504 67.568 2.80687 67.4561 2.51004C67.3442 2.21322 67.1885 2.00012 66.9889 1.87075C66.7997 1.73332 66.5663 1.64663 66.2886 1.61067C65.8258 1.55074 65.4457 1.61446 65.1483 1.80182C64.8602 1.99038 64.6896 2.28827 64.6364 2.69549C64.5858 3.08419 64.6546 3.4225 64.8429 3.7104C65.0313 3.99831 65.2892 4.25758 65.6168 4.48822C65.9444 4.71887 66.2905 4.95191 66.6551 5.18735C67.029 5.42398 67.3767 5.68076 67.6982 5.95768C68.0291 6.2358 68.2832 6.56046 68.4607 6.93165C68.6382 7.30285 68.6931 7.74759 68.6255 8.26587C68.5627 8.74712 68.3885 9.18101 68.1028 9.56751C67.8182 9.94477 67.419 10.2272 66.9051 10.4147C66.4017 10.5942 65.7705 10.6348 65.0115 10.5366Z" fill="#FAFAFA"/>
<path d="M80.1823 12.9807C79.8089 13.2335 79.408 13.3799 78.9794 13.4197C78.5544 13.4509 78.0948 13.3678 77.6008 13.1704C77.1155 12.9765 76.7057 12.6821 76.3716 12.2873C76.041 11.8839 75.8277 11.4016 75.7315 10.8406C75.6475 10.2743 75.7414 9.65351 76.0132 8.97815C76.2223 8.45865 76.531 8.00407 76.9393 7.61443C77.3477 7.22479 77.8208 6.96156 78.3588 6.82474C78.8968 6.68791 79.4648 6.73897 80.0629 6.97791C80.4875 7.1476 80.8497 7.34759 81.1494 7.57788C81.4491 7.80818 81.6863 8.06878 81.861 8.35969C81.7253 8.59694 81.5982 8.83764 81.4798 9.08181C81.3649 9.31732 81.2534 9.56928 81.1454 9.83769C81.0413 9.84636 80.9165 9.83164 80.7708 9.79355C80.6252 9.75546 80.496 9.71391 80.3833 9.66889C80.5421 9.14939 80.5611 8.71474 80.4403 8.36495C80.323 8.0065 80.0823 7.75456 79.7183 7.60912C79.3196 7.44982 78.9188 7.52084 78.5158 7.82216C78.125 8.11829 77.7849 8.62568 77.4957 9.34433C77.3284 9.75994 77.2375 10.1859 77.2228 10.6223C77.2117 11.05 77.2934 11.4344 77.468 11.7756C77.6513 12.1202 77.9422 12.3721 78.3409 12.5314C78.6183 12.6422 78.9027 12.6855 79.1941 12.6612C79.4856 12.637 79.7659 12.553 80.035 12.4093C80.0956 12.4837 80.1362 12.5703 80.1569 12.669C80.1862 12.7712 80.1947 12.8751 80.1823 12.9807Z" fill="#FAFAFA"/>
<path d="M89.4558 16.3906C89.2282 16.7212 89.0882 16.9986 89.0358 17.2228C88.9835 17.4471 89.0105 17.6464 89.117 17.8209C89.2312 18.0007 89.4075 18.189 89.6459 18.3859C89.6214 18.4709 89.5812 18.5621 89.5254 18.6596C89.4773 18.7624 89.4136 18.8715 89.3342 18.9868C89.2162 18.8949 89.0751 18.7871 88.9109 18.6636C88.7414 18.5477 88.5629 18.4201 88.3756 18.2808C88.1829 18.1491 87.9903 18.0175 87.7976 17.8858C87.5048 17.6857 87.2004 17.4777 86.8845 17.2617C86.5633 17.0535 86.3088 16.8965 86.1209 16.7908C86.2056 16.6678 86.2836 16.5628 86.3548 16.4758C86.426 16.3888 86.4982 16.3251 86.5713 16.2847C86.79 16.4115 86.9744 16.481 87.1246 16.4932C87.2825 16.5107 87.4349 16.4622 87.5817 16.3477C87.7285 16.2333 87.8945 16.0415 88.0797 15.7724L88.8021 14.723L90.0273 15.5604L89.4558 16.3906ZM90.5513 14.7993L89.9082 15.7333L88.683 14.896L89.5642 13.616L91.5594 13.3347C91.3954 13.5731 91.2188 13.7802 91.0297 13.9562C90.8405 14.1321 90.6461 14.3158 90.4464 14.5072L90.5513 14.7993ZM90.3525 14.5448C90.5725 14.3898 90.7558 14.2552 90.9026 14.1407C91.0624 14.0238 91.201 13.9376 91.3185 13.8823C91.6732 13.729 92.0271 13.643 92.38 13.6242C92.7406 13.6106 93.075 13.7092 93.3832 13.9198C93.676 14.1199 93.8784 14.3939 93.9902 14.7416C93.8848 14.8618 93.7636 15.005 93.6264 15.1713C93.4946 15.3299 93.364 15.495 93.2345 15.6665C93.1181 15.8357 93.0096 15.9933 92.9091 16.1393C92.8031 16.1121 92.6729 16.0627 92.5183 15.991C92.3637 15.9192 92.2171 15.836 92.0784 15.7412C92.3011 15.3847 92.4021 15.1146 92.3813 14.9308C92.3735 14.7446 92.2926 14.5988 92.1384 14.4935C92.0152 14.4092 91.8262 14.3875 91.5715 14.4282C91.3245 14.4742 91.0689 14.5822 90.8047 14.752C90.5405 14.9219 90.3105 15.1491 90.1146 15.4335L90.3525 14.5448ZM88.683 14.896L89.5086 13.6967C89.6462 13.4968 89.7355 13.3261 89.7763 13.1844C89.8302 13.0403 89.8166 12.8954 89.7357 12.7497C89.6547 12.6039 89.4897 12.4403 89.2407 12.2588C89.3042 12.1665 89.3728 12.0834 89.4464 12.0094C89.5201 11.9353 89.6 11.8769 89.6861 11.834C89.9895 12.0188 90.3334 12.1859 90.7176 12.3355C91.1019 12.4851 91.4144 12.5743 91.6551 12.6031C91.711 12.6866 91.7395 12.7851 91.7405 12.8989C91.7415 13.0126 91.6812 13.1579 91.5594 13.3347L88.683 14.896Z" fill="#FAFAFA"/>
<path d="M96.571 24.9231C96.1193 24.4382 95.8242 23.9229 95.6857 23.3772C95.5605 22.832 95.5872 22.2924 95.7658 21.7585C95.9509 21.2314 96.29 20.7397 96.7834 20.2835C97.263 19.8398 97.7833 19.5494 98.3442 19.412C98.9114 19.2815 99.4664 19.3022 100.009 19.474C100.559 19.6395 101.047 19.951 101.473 20.4086C101.95 20.9207 102.251 21.4494 102.377 21.9947C102.502 22.5399 102.469 23.0726 102.277 23.5929C102.086 24.1132 101.747 24.5983 101.261 25.0482C100.788 25.4855 100.271 25.7794 99.7093 25.9299C99.1548 26.074 98.6027 26.0634 98.0531 25.8979C97.5167 25.7329 97.0227 25.408 96.571 24.9231ZM97.2112 24.5217C97.5674 24.9042 97.9925 25.0386 98.4863 24.9252C98.987 24.8054 99.4977 24.5047 100.018 24.023C100.443 23.6301 100.753 23.2296 100.946 22.8215C101.153 22.4139 101.24 22.0348 101.207 21.6842C101.187 21.334 101.066 21.0394 100.843 20.8004C100.493 20.4248 100.075 20.2906 99.5877 20.3977C99.1007 20.5048 98.6106 20.7866 98.1172 21.2428C97.6787 21.6484 97.3461 22.0514 97.1195 22.4516C96.8993 22.8588 96.7957 23.2405 96.8089 23.597C96.829 23.9472 96.9631 24.2554 97.2112 24.5217Z" fill="#FAFAFA"/>
<path d="M102.694 31.8734C102.791 31.816 102.893 31.7602 103.002 31.706C103.111 31.6518 103.213 31.6127 103.308 31.5889C103.508 31.904 103.714 32.0746 103.926 32.1004C104.142 32.1343 104.451 32.0316 104.851 31.7924L110.128 28.6419C110.313 28.5319 110.453 28.421 110.549 28.3092C110.645 28.1975 110.687 28.0585 110.674 27.8922C110.661 27.726 110.575 27.5109 110.417 27.2469C110.513 27.1895 110.61 27.1425 110.708 27.1059C110.805 27.0692 110.902 27.0494 110.998 27.0463C111.099 27.2143 111.242 27.4063 111.427 27.6223C111.611 27.8384 111.798 28.0312 111.987 28.2009C112.181 28.3786 112.341 28.5003 112.468 28.566C112.484 28.6651 112.469 28.7666 112.422 28.8704C112.376 28.9743 112.272 29.074 112.112 29.1697L105.609 33.0522C105.208 33.2914 104.967 33.506 104.885 33.6961C104.808 33.8942 104.845 34.1276 104.996 34.3964C104.93 34.4682 104.844 34.5416 104.736 34.6166C104.634 34.6996 104.542 34.765 104.462 34.8128C104.388 34.6721 104.307 34.5193 104.219 34.3546C104.123 34.1946 104.026 34.0242 103.928 33.8435C103.822 33.6675 103.719 33.4955 103.618 33.3276C103.517 33.1596 103.411 32.9836 103.301 32.7997C103.182 32.6205 103.074 32.4509 102.978 32.2909C102.874 32.1358 102.779 31.9966 102.694 31.8734Z" fill="#FAFAFA"/>
<path d="M107.024 39.2796C107.129 39.2392 107.239 39.2015 107.356 39.1664C107.472 39.1314 107.579 39.11 107.676 39.1025C107.82 39.447 107.995 39.6498 108.199 39.711C108.406 39.7808 108.728 39.7316 109.163 39.5633L114.895 37.3464C115.095 37.269 115.252 37.1833 115.366 37.0893C115.48 36.9953 115.544 36.8653 115.56 36.6992C115.575 36.5332 115.527 36.3066 115.415 36.0196C115.52 35.9792 115.623 35.9492 115.726 35.9296C115.828 35.9099 115.927 35.9067 116.022 35.9199C116.093 36.1025 116.202 36.3159 116.347 36.56C116.492 36.804 116.643 37.0257 116.801 37.2248C116.962 37.4327 117.1 37.5797 117.213 37.6658C117.212 37.7663 117.18 37.8638 117.117 37.9583C117.053 38.0529 116.935 38.1338 116.761 38.2011L109.696 40.933C109.261 41.1013 108.987 41.2723 108.875 41.446C108.765 41.6283 108.762 41.8647 108.865 42.155C108.789 42.2148 108.691 42.2726 108.572 42.3284C108.457 42.3929 108.356 42.442 108.269 42.4757C108.22 42.3245 108.166 42.1602 108.107 41.9829C108.039 41.809 107.973 41.6247 107.907 41.43C107.832 41.2387 107.759 41.0517 107.688 40.869C107.617 40.6864 107.543 40.4951 107.465 40.2951C107.378 40.0984 107.301 39.9131 107.233 39.7392C107.157 39.5686 107.087 39.4154 107.024 39.2796Z" fill="#FAFAFA"/>
<path d="M111.94 56.5912C112.08 56.5956 112.205 56.6042 112.317 56.617C112.438 56.6301 112.535 56.6518 112.609 56.6821C112.62 56.9346 112.66 57.1319 112.731 57.2742C112.81 57.4167 112.947 57.519 113.141 57.5811C113.335 57.6525 113.619 57.694 113.992 57.7056L119.505 57.877C119.841 57.8874 120.094 57.8673 120.263 57.8165C120.442 57.766 120.571 57.672 120.65 57.5344C120.729 57.3968 120.782 57.2023 120.809 56.951C120.893 56.9257 120.997 56.9102 121.118 56.9046C121.24 56.8991 121.361 56.8982 121.483 56.902C121.468 57.0603 121.453 57.2605 121.436 57.5028C121.428 57.7453 121.416 57.9971 121.398 58.258C121.39 58.5285 121.382 58.7804 121.374 59.0136C121.366 59.2655 121.363 59.5268 121.364 59.7977C121.364 60.0778 121.36 60.3578 121.352 60.6377C121.336 61.1321 121.283 61.63 121.193 62.1315C121.112 62.6332 120.971 63.105 120.77 63.547C120.579 63.9986 120.305 64.3916 119.949 64.7261C119.602 65.0701 119.16 65.3318 118.622 65.5112C118.093 65.7002 117.441 65.7827 116.667 65.7586C115.911 65.7351 115.266 65.6216 114.731 65.4182C114.195 65.2148 113.751 64.9536 113.397 64.6344C113.042 64.3152 112.759 63.9609 112.547 63.5715C112.335 63.1821 112.18 62.785 112.08 62.3804C111.981 61.9851 111.918 61.605 111.892 61.24C111.866 60.8844 111.857 60.5806 111.865 60.3287C111.873 60.0675 111.882 59.7597 111.893 59.4052C111.904 59.06 111.916 58.7008 111.927 58.3277C111.929 57.9636 111.935 57.6276 111.945 57.3198C111.945 57.0116 111.943 56.7688 111.94 56.5912ZM112.562 60.4344C112.546 60.9289 112.592 61.3878 112.701 61.8114C112.808 62.2443 113.006 62.6286 113.295 62.9644C113.592 63.3005 114 63.5653 114.516 63.7588C115.042 63.9619 115.706 64.0759 116.509 64.1009C117.255 64.1241 117.897 64.0367 118.436 63.8386C118.974 63.6499 119.407 63.3786 119.736 63.0246C120.074 62.671 120.32 62.2678 120.474 61.815C120.638 61.3719 120.727 60.9077 120.742 60.4226C120.748 60.2267 120.736 60.0116 120.706 59.7772C120.685 59.5525 120.648 59.4019 120.594 59.3255L120.996 59.4641L113.943 59.2448C113.589 59.2338 113.313 59.2579 113.115 59.3171C112.917 59.3763 112.778 59.4934 112.698 59.6683C112.617 59.8525 112.572 60.1079 112.562 60.4344Z" fill="#FAFAFA"/>
<path d="M110.167 73.5301C110.359 72.8958 110.656 72.3809 111.059 71.9853C111.467 71.6014 111.948 71.351 112.5 71.2343C113.049 71.1265 113.646 71.1693 114.29 71.3626C114.915 71.5506 115.429 71.8511 115.83 72.2641C116.229 72.6861 116.491 73.1741 116.616 73.7281C116.75 74.2848 116.726 74.8624 116.545 75.4609C116.342 76.1309 116.037 76.6579 115.628 77.0419C115.219 77.4258 114.741 77.6673 114.195 77.7661C113.648 77.865 113.057 77.8191 112.423 77.6284C111.806 77.4431 111.291 77.1471 110.878 76.7403C110.473 76.3362 110.204 75.8558 110.07 75.2991C109.943 74.754 109.975 74.1643 110.167 73.5301ZM110.837 73.8776C110.686 74.3778 110.784 74.8117 111.131 75.1791C111.487 75.5492 112.004 75.8363 112.684 76.0404C113.238 76.2069 113.74 76.2702 114.191 76.2302C114.649 76.2019 115.02 76.0846 115.307 75.8784C115.6 75.6838 115.794 75.4301 115.888 75.1175C116.037 74.6261 115.942 74.1981 115.604 73.8334C115.266 73.4687 114.775 73.1896 114.132 72.9963C113.559 72.8244 113.043 72.7423 112.582 72.7501C112.119 72.7668 111.736 72.8711 111.435 73.0631C111.142 73.2577 110.942 73.5292 110.837 73.8776Z" fill="#FAFAFA"/>
<path d="M106.121 84.4361C106.572 84.5449 107.025 84.6497 107.481 84.7506C107.94 84.8643 108.396 84.9652 108.849 85.0532C109.297 85.1491 109.737 85.24 110.17 85.3259C110.597 85.4196 111.008 85.5034 111.404 85.5772C111.68 85.6304 111.896 85.6398 112.05 85.6053C112.213 85.5757 112.373 85.4894 112.531 85.3462C112.63 85.3647 112.736 85.3985 112.848 85.4476C112.964 85.5097 113.065 85.5681 113.152 85.6231C113.028 85.7991 112.902 85.979 112.774 86.1629C112.649 86.3596 112.501 86.5917 112.33 86.8593C112.159 87.1269 112.005 87.3772 111.868 87.6104C111.73 87.8436 111.597 88.069 111.47 88.2864C111.375 88.2265 111.278 88.1538 111.177 88.0681C111.072 87.9903 110.991 87.9172 110.935 87.8487C111.047 87.6212 111.103 87.4467 111.103 87.3252C111.106 87.2166 111.056 87.1298 110.954 87.0649C110.854 87.0128 110.704 86.9619 110.503 86.9122C109.964 86.8028 109.379 86.67 108.748 86.5136C108.12 86.3701 107.524 86.2193 106.961 86.0614L107.092 85.8297L110.245 90.129C110.215 90.2098 110.172 90.3039 110.115 90.4111C110.057 90.5184 110.001 90.6154 109.946 90.7019C109.16 90.5801 108.297 90.4315 107.358 90.2562C106.413 90.0888 105.483 89.9146 104.569 89.7336L104.708 89.49L106.512 91.6598C106.797 91.9946 107.039 92.2141 107.238 92.3181C107.44 92.4351 107.617 92.4699 107.769 92.4225C107.929 92.3801 108.081 92.272 108.225 92.0981C108.345 92.1186 108.46 92.1471 108.569 92.1834C108.682 92.2325 108.786 92.2871 108.88 92.347C108.772 92.4994 108.656 92.6636 108.533 92.8396C108.404 93.0235 108.283 93.2059 108.167 93.3869C108.027 93.6072 107.905 93.8065 107.803 93.9846C107.695 94.1706 107.603 94.3329 107.525 94.4717C107.423 94.4068 107.325 94.334 107.233 94.2534C107.143 94.1856 107.067 94.1046 107.006 94.0103C107.055 93.8644 107.067 93.7233 107.043 93.5868C107.015 93.4581 106.931 93.2946 106.792 93.0961C106.648 92.9054 106.438 92.6348 106.164 92.2842L103.435 88.8828C103.446 88.8127 103.469 88.7334 103.504 88.6447C103.533 88.5639 103.569 88.4816 103.611 88.3979C103.653 88.3142 103.7 88.2331 103.75 88.1544C104.343 88.2651 104.942 88.3679 105.546 88.4628C106.152 88.5707 106.744 88.6749 107.322 88.7756C107.908 88.8813 108.469 88.9824 109.005 89.0789L108.986 89.63L105.813 85.1527C105.815 85.0984 105.83 85.0309 105.86 84.95C105.884 84.8771 105.92 84.7949 105.967 84.7033C106.01 84.6196 106.061 84.5306 106.121 84.4361Z" fill="#FAFAFA"/>
<path d="M100.283 97.8861L101.259 98.9665C101.421 99.1466 101.567 99.273 101.696 99.3457C101.823 99.4316 101.968 99.4524 102.129 99.4081C102.291 99.3638 102.489 99.2423 102.724 99.0436C102.8 99.1267 102.865 99.2126 102.919 99.3012C102.974 99.3899 103.013 99.481 103.034 99.5744C102.783 99.8251 102.539 100.119 102.303 100.456C102.066 100.793 101.906 101.075 101.821 101.302C101.727 101.336 101.624 101.341 101.513 101.315C101.401 101.29 101.274 101.197 101.13 101.038L100.283 97.8861ZM95.2795 100.869C94.9604 100.515 94.6994 100.317 94.4965 100.273C94.2866 100.236 94.0774 100.311 93.869 100.498C93.7855 100.447 93.706 100.387 93.6302 100.317C93.5544 100.247 93.4665 100.156 93.3664 100.046C93.5318 99.9224 93.7218 99.7708 93.9365 99.5908C94.145 99.4038 94.3569 99.2138 94.5723 99.0206C94.7182 98.8897 94.8745 98.7495 95.0413 98.6C95.1949 98.4497 95.3446 98.3092 95.4905 98.1783C95.6302 98.0405 95.7525 97.9183 95.8574 97.8117C95.9512 97.9156 96.0322 98.0122 96.1003 98.1015C96.1685 98.1909 96.2168 98.2792 96.2453 98.3664C96.016 98.5721 95.9052 98.7905 95.9129 99.0218C95.9206 99.2531 96.084 99.5454 96.4031 99.8986L97.7075 101.343C98.1392 101.821 98.5167 102.071 98.8399 102.095C99.163 102.118 99.4636 102.006 99.7415 101.756C99.9152 101.601 100.036 101.386 100.103 101.112C100.17 100.839 100.151 100.524 100.043 100.169C99.9294 99.8202 99.6878 99.4413 99.3187 99.0327L98.4271 98.0458C98.1143 97.6995 97.8498 97.5042 97.6337 97.4598C97.4168 97.4286 97.1833 97.5252 96.9332 97.7495C96.8428 97.7052 96.7566 97.6446 96.6746 97.5677C96.5988 97.4977 96.514 97.4108 96.4202 97.3069C96.5237 97.2266 96.6516 97.1245 96.8038 97.0006C96.9497 96.8697 97.1057 96.7361 97.2717 96.5997C97.4315 96.4564 97.5879 96.3161 97.7407 96.1791C97.8867 96.0482 98.043 95.908 98.2098 95.7584C98.3633 95.6082 98.5165 95.4645 98.6694 95.3274C98.816 95.1834 98.9383 95.0612 99.0363 94.9608C99.1301 95.0647 99.2111 95.1613 99.2792 95.2506C99.3467 95.3531 99.395 95.4414 99.4242 95.5155C99.1532 95.7586 99.0254 95.986 99.0407 96.1979C99.0554 96.423 99.2191 96.7087 99.5319 97.055L101.259 98.9665L101.13 101.038C101.055 100.955 100.977 100.855 100.897 100.739C100.81 100.628 100.731 100.499 100.66 100.35C100.676 100.423 100.695 100.5 100.717 100.581C100.739 100.661 100.754 100.754 100.762 100.86C100.781 101.132 100.734 101.462 100.62 101.852C100.507 102.242 100.273 102.596 99.919 102.914C99.648 103.157 99.3444 103.329 99.008 103.43C98.6779 103.538 98.3308 103.529 97.9666 103.405C97.6017 103.293 97.2284 103.026 96.8468 102.604L95.2795 100.869Z" fill="#FAFAFA"/>
<path d="M78.6328 112.916C78.5824 112.766 78.5423 112.602 78.5126 112.425C78.4858 112.257 78.4797 112.092 78.4942 111.929C78.7422 111.847 79.033 111.745 79.3666 111.625C79.6943 111.516 80.0338 111.398 80.3851 111.271C80.7393 111.153 81.0788 111.036 81.4036 110.918C81.7312 110.809 82.0205 110.703 82.2715 110.6C82.3248 110.759 82.3649 110.937 82.3917 111.135C82.4097 111.336 82.4099 111.513 82.3924 111.666L78.6328 112.916Z" fill="#FAFAFA"/>
<path d="M58.5876 111.558C59.1637 111.612 59.6719 111.74 60.1121 111.941C60.5524 112.142 60.9873 112.399 61.4169 112.711C61.3276 113.059 61.2563 113.413 61.2032 113.774C61.1501 114.135 61.1102 114.454 61.0837 114.733C60.9593 114.759 60.8131 114.768 60.645 114.762C60.4759 114.765 60.3217 114.759 60.1824 114.746C60.1921 114.25 60.1479 113.829 60.0497 113.482C59.9422 113.134 59.7528 112.859 59.4816 112.655C59.2011 112.45 58.8239 112.325 58.35 112.281C57.7367 112.223 57.2872 112.316 57.0013 112.561C56.7062 112.805 56.5405 113.117 56.5042 113.498C56.4679 113.879 56.5493 114.206 56.7483 114.478C56.9474 114.75 57.2151 114.99 57.5514 115.2C57.8868 115.42 58.2412 115.636 58.6146 115.849C58.9881 116.063 59.3403 116.302 59.6712 116.568C60.0013 116.843 60.261 117.168 60.4504 117.542C60.6397 117.916 60.7083 118.377 60.656 118.925C60.6038 119.474 60.4387 119.927 60.1608 120.285C59.8829 120.643 59.521 120.899 59.075 121.054C58.6188 121.217 58.098 121.271 57.5126 121.215C57.1874 121.185 56.8741 121.127 56.5728 121.042C56.2715 120.957 55.9998 120.857 55.7578 120.74C55.5065 120.623 55.3071 120.501 55.1598 120.374C55.1873 120.086 55.2136 119.76 55.2388 119.397C55.2641 119.034 55.2696 118.73 55.2555 118.485C55.3714 118.449 55.519 118.425 55.6982 118.414C55.8681 118.402 56.0274 118.403 56.176 118.417C56.2185 118.956 56.3008 119.371 56.4229 119.664C56.545 119.957 56.708 120.164 56.912 120.287C57.1058 120.418 57.3421 120.496 57.6208 120.523C58.0854 120.567 58.4631 120.49 58.7538 120.292C59.0352 120.094 59.1954 119.79 59.2343 119.382C59.2715 118.991 59.191 118.656 58.9928 118.374C58.7946 118.093 58.5278 117.843 58.1924 117.624C57.857 117.404 57.5031 117.183 57.1305 116.961C56.7487 116.737 56.3923 116.492 56.0613 116.227C55.7211 115.96 55.4558 115.644 55.2656 115.279C55.0753 114.915 55.005 114.472 55.0546 113.952C55.1006 113.469 55.2597 113.029 55.5319 112.633C55.8031 112.246 56.1923 111.95 56.6994 111.745C57.1963 111.548 57.8257 111.486 58.5876 111.558Z" fill="#FAFAFA"/>
<path d="M43.3342 109.638C43.6986 109.373 44.0942 109.212 44.521 109.158C44.9447 109.112 45.4068 109.179 45.9074 109.359C46.3992 109.536 46.8189 109.816 47.1665 110.199C47.5109 110.591 47.741 111.066 47.8566 111.623C47.9602 112.186 47.888 112.81 47.6399 113.494C47.449 114.021 47.1564 114.486 46.7619 114.889C46.3674 115.293 45.9037 115.572 45.3708 115.728C44.8379 115.883 44.2685 115.852 43.6626 115.634C43.2323 115.479 42.8634 115.291 42.5559 115.072C42.2484 114.852 42.0023 114.6 41.8176 114.315C41.9449 114.073 42.0635 113.828 42.1733 113.58C42.28 113.341 42.3826 113.085 42.4812 112.813C42.5849 112.801 42.7102 112.811 42.8571 112.844C43.004 112.877 43.1345 112.914 43.2486 112.955C43.1081 113.48 43.1042 113.915 43.2371 114.26C43.3668 114.615 43.6161 114.858 43.985 114.991C44.3889 115.136 44.787 115.051 45.1792 114.736C45.5595 114.427 45.8816 113.908 46.1456 113.18C46.2983 112.758 46.3744 112.329 46.3738 111.893C46.3701 111.465 46.2751 111.084 46.0887 110.749C45.8936 110.411 45.594 110.169 45.19 110.023C44.909 109.922 44.6233 109.889 44.3329 109.923C44.0425 109.958 43.7653 110.051 43.5013 110.204C43.4382 110.132 43.3946 110.047 43.3705 109.949C43.3377 109.848 43.3256 109.744 43.3342 109.638Z" fill="#FAFAFA"/>
<path d="M33.9527 106.553C34.1687 106.215 34.299 105.933 34.3435 105.707C34.3881 105.481 34.3542 105.283 34.2417 105.112C34.1214 104.936 33.9387 104.754 33.6936 104.566C33.7152 104.48 33.7522 104.387 33.8046 104.288C33.8491 104.184 33.909 104.072 33.9843 103.954C34.1054 104.042 34.2502 104.145 34.4186 104.263C34.592 104.373 34.7748 104.494 34.9668 104.627C35.1639 104.752 35.361 104.877 35.558 105.002C35.8576 105.192 36.169 105.389 36.4922 105.594C36.8204 105.791 37.0802 105.939 37.2715 106.038C37.1912 106.164 37.1169 106.272 37.0487 106.361C36.9806 106.451 36.9106 106.517 36.8389 106.56C36.616 106.44 36.4293 106.377 36.2788 106.37C36.1203 106.358 35.9698 106.412 35.827 106.532C35.6843 106.651 35.525 106.848 35.3492 107.124L34.6636 108.198L33.4102 107.403L33.9527 106.553ZM32.9129 108.182L33.5232 107.226L34.7766 108.021L33.9403 109.33L31.9561 109.68C32.1118 109.436 32.2811 109.223 32.464 109.041C32.6469 108.859 32.8349 108.668 33.0278 108.47L32.9129 108.182ZM33.1203 108.429C32.9059 108.592 32.7273 108.733 32.5846 108.852C32.4289 108.974 32.2934 109.065 32.1779 109.125C31.8287 109.29 31.4781 109.388 31.1261 109.419C30.7662 109.445 30.4286 109.358 30.1132 109.159C29.8137 108.969 29.602 108.702 29.4782 108.358C29.5793 108.234 29.6956 108.087 29.8269 107.916C29.9531 107.753 30.078 107.584 30.2014 107.408C30.3119 107.235 30.4149 107.073 30.5103 106.924C30.6171 106.947 30.749 106.992 30.9059 107.059C31.0629 107.125 31.2123 107.203 31.3542 107.293C31.144 107.657 31.0524 107.931 31.0795 108.114C31.0937 108.299 31.1797 108.442 31.3374 108.542C31.4635 108.622 31.6531 108.637 31.9062 108.588C32.1514 108.533 32.4031 108.417 32.6613 108.238C32.9195 108.059 33.1415 107.824 33.3273 107.533L33.1203 108.429ZM34.7766 108.021L33.993 109.248C33.8624 109.452 33.7792 109.626 33.7433 109.769C33.6944 109.915 33.713 110.059 33.7989 110.202C33.8849 110.345 34.0554 110.503 34.3105 110.676C34.2502 110.77 34.1846 110.855 34.1136 110.932C34.0425 111.008 33.9647 111.07 33.8801 111.115C33.5705 110.941 33.2211 110.786 32.8319 110.65C32.4427 110.514 32.1273 110.435 31.8857 110.415C31.827 110.333 31.7952 110.236 31.7902 110.122C31.7853 110.009 31.8406 109.861 31.9561 109.68L34.7766 108.021Z" fill="#FAFAFA"/>
<path d="M26.5489 98.2726C27.0171 98.7416 27.3298 99.2465 27.487 99.7871C27.631 100.328 27.6229 100.868 27.4628 101.408C27.296 101.941 26.974 102.444 26.4967 102.917C26.0326 103.377 25.5227 103.685 24.9669 103.842C24.4045 103.992 23.8491 103.99 23.3007 103.837C22.7458 103.691 22.2474 103.396 21.8056 102.954C21.3111 102.458 20.9918 101.94 20.8478 101.4C20.7038 100.859 20.7185 100.325 20.8918 99.7988C21.0652 99.2723 21.3872 98.7758 21.8579 98.3093C22.3153 97.856 22.822 97.5445 23.3778 97.3747C23.927 97.2115 24.4791 97.2031 25.0341 97.3495C25.5758 97.4959 26.0808 97.8036 26.5489 98.2726ZM25.923 98.6959C25.5537 98.3259 25.1243 98.2062 24.6347 98.3366C24.1385 98.4736 23.6384 98.7918 23.1346 99.2911C22.7235 99.6984 22.4282 100.109 22.2486 100.524C22.0557 100.938 21.9819 101.32 22.0273 101.67C22.0594 102.019 22.1908 102.309 22.4216 102.54C22.7843 102.903 23.2071 103.023 23.6901 102.899C24.1731 102.775 24.6532 102.477 25.1305 102.004C25.5548 101.584 25.8733 101.169 26.086 100.762C26.2921 100.347 26.3824 99.9619 26.3569 99.6061C26.3248 99.2569 26.1802 98.9535 25.923 98.6959Z" fill="#FAFAFA"/>
<path d="M20.1865 91.5339C20.0923 91.5946 19.9917 91.6539 19.8847 91.7119C19.7776 91.7698 19.6773 91.8123 19.5836 91.8394C19.3724 91.5314 19.1606 91.3681 18.9482 91.3496C18.7307 91.3232 18.4259 91.4365 18.0337 91.6894L12.8686 95.0203C12.6882 95.1367 12.5519 95.2523 12.4596 95.3673C12.3674 95.4823 12.3306 95.6227 12.3492 95.7884C12.3678 95.9541 12.461 96.1661 12.6287 96.4244C12.5346 96.4851 12.4393 96.5354 12.3429 96.5754C12.2464 96.6154 12.1502 96.6386 12.0542 96.645C11.9474 96.4806 11.7982 96.2937 11.6064 96.0841C11.4147 95.8746 11.2213 95.6884 11.0264 95.5253C10.8264 95.3545 10.6619 95.2384 10.5331 95.1771C10.5136 95.0786 10.5253 94.9767 10.5682 94.8713C10.611 94.7659 10.7109 94.6626 10.8677 94.5615L17.233 90.4567C17.6252 90.2038 17.8588 89.9809 17.9339 89.7881C18.0039 89.5875 17.9589 89.3555 17.799 89.0921C17.8622 89.0181 17.9462 88.9417 18.0509 88.8631C18.1505 88.7766 18.2396 88.7081 18.318 88.6575C18.3966 88.7956 18.4828 88.9455 18.5766 89.1071C18.6783 89.2636 18.7812 89.4305 18.8852 89.6078C18.997 89.78 19.1063 89.9482 19.2131 90.1126C19.3199 90.277 19.4317 90.4492 19.5487 90.6292C19.6735 90.8042 19.7867 90.9699 19.8884 91.1264C19.9979 91.2779 20.0973 91.4138 20.1865 91.5339Z" fill="#FAFAFA"/>
<path d="M15.5989 84.2771C15.4959 84.321 15.3867 84.3626 15.2715 84.4017C15.1562 84.4408 15.0501 84.4658 14.9532 84.4767C14.7971 84.1374 14.616 83.9408 14.4098 83.8867C14.2 83.8241 13.8805 83.8845 13.4513 84.0678L7.79929 86.4818C7.60187 86.5661 7.44801 86.6572 7.33771 86.7551C7.2274 86.8529 7.16742 86.9851 7.15777 87.1516C7.14812 87.3181 7.20416 87.5428 7.32588 87.8258C7.22288 87.8698 7.12049 87.9033 7.0187 87.9265C6.9169 87.9497 6.81816 87.9564 6.72247 87.9465C6.64501 87.7664 6.5295 87.557 6.37592 87.3181C6.22235 87.0792 6.06328 86.863 5.89871 86.6694C5.73046 86.4672 5.58802 86.3251 5.4714 86.243C5.46885 86.1426 5.49758 86.044 5.55759 85.9474C5.61761 85.8507 5.73345 85.7657 5.90511 85.6924L12.8704 82.7174C13.2996 82.5341 13.5674 82.3537 13.674 82.1763C13.7768 81.9903 13.7717 81.754 13.6585 81.4674C13.7333 81.405 13.8289 81.3439 13.9454 81.284C14.0582 81.2155 14.1575 81.1629 14.2433 81.1263C14.2974 81.2757 14.3571 81.438 14.4223 81.6131C14.4961 81.7846 14.5692 81.9665 14.6418 82.1587C14.7229 82.3474 14.8022 82.5317 14.8797 82.7117C14.9572 82.8918 15.0383 83.0804 15.1231 83.2776C15.2166 83.4711 15.3002 83.6536 15.3739 83.8251C15.4563 83.9929 15.5313 84.1435 15.5989 84.2771Z" fill="#FAFAFA"/>
<path d="M10.0869 67.1871C9.94687 67.1875 9.82085 67.1833 9.70882 67.1744C9.58746 67.1655 9.48939 67.1471 9.41463 67.1194C9.39507 66.8675 9.34772 66.6716 9.27256 66.5319C9.18806 66.3922 9.04772 66.2947 8.85152 66.2394C8.6553 66.1747 8.37052 66.1431 7.99718 66.1444L2.48122 66.1636C2.14522 66.1648 1.89332 66.1937 1.72552 66.2503C1.54838 66.3069 1.42273 66.4053 1.34855 66.5456C1.27438 66.6859 1.22841 66.882 1.21063 67.1341C1.12672 67.1624 1.02412 67.1814 0.902824 67.1912C0.781525 67.2009 0.660209 67.206 0.538876 67.2064C0.547651 67.0477 0.556278 66.847 0.564757 66.6043C0.563902 66.3617 0.567682 66.1097 0.576095 65.8483C0.575142 65.5776 0.574255 65.3256 0.573434 65.0923C0.572547 64.8403 0.56696 64.579 0.556674 64.3083C0.546355 64.0284 0.540703 63.7484 0.539718 63.4684C0.537976 62.9737 0.573552 62.4743 0.646444 61.97C0.710002 61.4658 0.834326 60.9894 1.01941 60.5407C1.19514 60.0828 1.45506 59.6805 1.79917 59.334C2.13392 58.9781 2.56695 58.7013 3.09826 58.5034C3.6202 58.2963 4.2685 58.1913 5.04316 58.1886C5.79916 58.186 6.44815 58.2771 6.99013 58.4618C7.53212 58.6466 7.98566 58.8924 8.35074 59.1991C8.71582 59.5058 9.01103 59.8501 9.23638 60.232C9.46173 60.6139 9.6311 61.0053 9.74452 61.4062C9.8579 61.7978 9.93389 62.1756 9.97251 62.5394C10.0111 62.894 10.0308 63.1972 10.0317 63.4492C10.0326 63.7106 10.0337 64.0186 10.035 64.3732C10.0362 64.7186 10.0374 65.0779 10.0388 65.4512C10.0494 65.8152 10.0552 66.1512 10.0563 66.4592C10.0667 66.7671 10.0769 67.0098 10.0869 67.1871ZM9.33142 63.3677C9.32968 62.873 9.2674 62.4159 9.14459 61.9963C9.02175 61.5674 8.81042 61.1902 8.5106 60.8645C8.20145 60.5389 7.78524 60.2884 7.26195 60.1129C6.72929 59.9281 6.06164 59.8371 5.25897 59.8399C4.51231 59.8425 3.87336 59.9521 3.34212 60.1686C2.81085 60.3758 2.38718 60.6619 2.07113 61.027C1.74575 61.3922 1.51386 61.8037 1.37547 62.2615C1.22772 62.71 1.1547 63.1769 1.1564 63.6622C1.15709 63.8582 1.17652 64.0728 1.21467 64.306C1.24346 64.5299 1.28598 64.6791 1.34225 64.7536L0.935806 64.629L7.99176 64.6044C8.34643 64.6031 8.62164 64.5695 8.81741 64.5035C9.01318 64.4375 9.14809 64.3157 9.22213 64.1381C9.29614 63.9511 9.33257 63.6943 9.33142 63.3677Z" fill="#FAFAFA"/>
<path d="M11.2676 50.1721C11.0981 50.8127 10.8192 51.3377 10.4309 51.7472C10.0359 52.1452 9.56462 52.4122 9.01696 52.5482C8.47168 52.6752 7.87406 52.6533 7.22411 52.4826C6.59221 52.3166 6.06833 52.0343 5.65249 51.6356C5.23902 51.2278 4.96015 50.7493 4.81586 50.1999C4.66254 49.6482 4.66586 49.0701 4.8258 48.4656C5.00484 47.7888 5.29184 47.2515 5.68679 46.8534C6.08174 46.4553 6.55066 46.1973 7.09355 46.0794C7.63645 45.9614 8.22836 45.9866 8.86928 46.155C9.49215 46.3186 10.0172 46.5964 10.4445 46.9885C10.8627 47.3782 11.1485 47.8489 11.3018 48.4006C11.4485 48.941 11.4371 49.5314 11.2676 50.1721ZM10.5857 49.8482C10.7194 49.3429 10.6064 48.9128 10.2465 48.5577C9.87769 48.2003 9.35024 47.9314 8.66418 47.7512C8.10449 47.6042 7.60006 47.5586 7.15087 47.6143C6.69504 47.6586 6.3275 47.7889 6.04826 48.005C5.76238 48.2098 5.57766 48.47 5.49411 48.7858C5.36281 49.2821 5.47256 49.7066 5.82335 50.0593C6.17414 50.4119 6.67451 50.6737 7.32447 50.8444C7.9022 50.9961 8.42111 51.06 8.8812 51.0361C9.34367 51.0032 9.72236 50.8856 10.0173 50.6832C10.3031 50.4784 10.4926 50.2001 10.5857 49.8482Z" fill="#FAFAFA"/>
<path d="M14.9315 39.1213C14.4771 39.0282 14.0203 38.9392 13.5612 38.8541C13.0987 38.7563 12.6396 38.6713 12.1838 38.599C11.7327 38.5187 11.2896 38.443 10.8547 38.3721C10.4244 38.2932 10.0103 38.2237 9.61226 38.1637C9.33459 38.12 9.11898 38.1181 8.96543 38.158C8.80382 38.1931 8.64669 38.285 8.49403 38.4335C8.39452 38.4185 8.28768 38.3884 8.1735 38.3431C8.056 38.2851 7.95296 38.2302 7.86437 38.1783C7.9815 37.9981 8.10101 37.8139 8.22288 37.6257C8.34144 37.4247 8.48135 37.1876 8.64259 36.9143C8.80384 36.641 8.9492 36.3854 9.07868 36.1476C9.20816 35.9097 9.3329 35.6799 9.45289 35.4582C9.54954 35.5148 9.64949 35.5841 9.75276 35.6663C9.86076 35.7403 9.9439 35.8107 10.0022 35.8772C9.89826 36.1084 9.84842 36.2847 9.85263 36.4062C9.85353 36.5149 9.90633 36.5999 10.011 36.6612C10.1124 36.7098 10.2643 36.7554 10.4666 36.7982C11.0091 36.8888 11.5983 37.0014 12.2342 37.1359C12.8668 37.2576 13.4673 37.3876 14.0359 37.5259L13.9128 37.7621L10.6131 33.5742C10.6397 33.4925 10.6798 33.397 10.7334 33.2877C10.787 33.1785 10.8399 33.0797 10.892 32.9913C11.6815 33.0859 12.5488 33.2045 13.4941 33.3472C14.4442 33.4818 15.3791 33.6237 16.2988 33.773L16.1686 34.0213L14.2902 31.9152C13.9942 31.5904 13.7448 31.3794 13.542 31.2823C13.3359 31.1724 13.1578 31.1437 13.0075 31.1963C12.8492 31.2442 12.7011 31.3576 12.5631 31.5364C12.4428 31.5199 12.3271 31.4955 12.2163 31.463C12.1021 31.4178 11.9967 31.3668 11.9 31.3102C12.0029 31.1542 12.113 30.9861 12.2301 30.8059C12.352 30.6177 12.4674 30.4311 12.5765 30.2462C12.7093 30.0212 12.8238 29.8178 12.9201 29.6363C13.0212 29.4467 13.1079 29.2812 13.1805 29.1398C13.2852 29.2011 13.3852 29.2705 13.4804 29.3479C13.5723 29.4125 13.6507 29.4909 13.7155 29.583C13.6719 29.7305 13.6642 29.872 13.6926 30.0076C13.7257 30.1352 13.8152 30.2957 13.9611 30.4893C14.1117 30.6749 14.3302 30.9381 14.6168 31.279L17.462 34.5841C17.453 34.6545 17.4328 34.7347 17.4015 34.8245C17.3749 34.9063 17.3419 34.9897 17.3025 35.0748C17.2632 35.1599 17.2198 35.2427 17.1724 35.323C16.5753 35.2329 15.9735 35.1509 15.367 35.0769C14.7572 34.9901 14.1618 34.9064 13.5809 34.8257C12.9919 34.7403 12.4278 34.6587 11.8885 34.5809L11.8888 34.0294L15.214 38.3944C15.2145 38.4488 15.2014 38.5168 15.1749 38.5986C15.153 38.6724 15.12 38.7558 15.0759 38.8489C15.0366 38.934 14.9884 39.0248 14.9315 39.1213Z" fill="#FAFAFA"/>
<path d="M20.298 25.4808L19.2853 24.4346C19.1165 24.2603 18.9666 24.139 18.8356 24.0707C18.7048 23.9893 18.5596 23.9735 18.4 24.0233C18.2404 24.0732 18.0463 24.2014 17.8178 24.4082C17.7399 24.3277 17.6719 24.2441 17.614 24.1574C17.556 24.0707 17.5147 23.981 17.4899 23.8883C17.7326 23.6291 17.9662 23.327 18.1907 22.9818C18.4151 22.6367 18.5658 22.3495 18.6427 22.1203C18.7359 22.0824 18.8386 22.0744 18.9506 22.0962C19.0626 22.118 19.1933 22.206 19.3426 22.3602L20.298 25.4808ZM25.1954 22.3275C25.5265 22.6695 25.7942 22.8588 25.9985 22.8954C26.2096 22.9256 26.4161 22.8437 26.6179 22.6496C26.703 22.6973 26.7847 22.7548 26.8628 22.8221C26.9409 22.8894 27.0319 22.9767 27.1358 23.084C26.9748 23.2128 26.7901 23.3709 26.5817 23.5582C26.3798 23.7523 26.1746 23.9495 25.966 24.15C25.8246 24.2858 25.6732 24.4313 25.5117 24.5865C25.3634 24.742 25.2186 24.8876 25.0773 25.0234C24.9425 25.166 24.8245 25.2923 24.7233 25.4025C24.6259 25.3019 24.5417 25.2081 24.4705 25.1212C24.3993 25.0343 24.348 24.9477 24.3165 24.8615C24.5385 24.648 24.6417 24.4259 24.6261 24.195C24.6104 23.9641 24.437 23.6777 24.106 23.3357L22.7524 21.9375C22.3045 21.4748 21.9187 21.2372 21.5949 21.2248C21.2711 21.2123 20.9746 21.3355 20.7054 21.5942C20.5372 21.7558 20.4241 21.9745 20.3662 22.2502C20.3084 22.5259 20.3391 22.8394 20.4584 23.1908C20.5844 23.5357 20.8389 23.9059 21.2219 24.3016L22.147 25.2572C22.4716 25.5925 22.7426 25.7785 22.9602 25.8154C23.178 25.8391 23.408 25.7346 23.6503 25.5017C23.7421 25.5429 23.8303 25.6005 23.915 25.6745C23.9931 25.7418 24.0809 25.8258 24.1782 25.9263C24.0775 26.0102 23.9533 26.1167 23.8055 26.2458C23.6641 26.3816 23.5129 26.5205 23.3516 26.6625C23.1968 26.8113 23.0454 26.9568 22.8973 27.0991C22.756 27.2349 22.6046 27.3804 22.4431 27.5356C22.2948 27.6911 22.1467 27.84 21.9986 27.9822C21.8571 28.1312 21.7391 28.2576 21.6446 28.3613C21.5472 28.2607 21.463 28.1669 21.3918 28.08C21.3209 27.9799 21.2695 27.8933 21.2378 27.8203C21.5002 27.568 21.6201 27.3363 21.5975 27.125C21.5751 26.9006 21.4016 26.6208 21.077 26.2855L19.2853 24.4346L19.3426 22.3602C19.4205 22.4407 19.5014 22.5377 19.5853 22.6512C19.676 22.7583 19.7596 22.885 19.8363 23.0313C19.8178 22.9585 19.7961 22.8823 19.771 22.8028C19.746 22.7233 19.7279 22.6307 19.7165 22.5251C19.6884 22.2544 19.7241 21.9224 19.8238 21.5288C19.9235 21.1353 20.1449 20.7736 20.4881 20.4438C20.7506 20.1916 21.0481 20.0092 21.3808 19.8966C21.7069 19.7773 22.0542 19.7736 22.4225 19.8857C22.791 19.9846 23.1733 20.2386 23.5692 20.6476L25.1954 22.3275Z" fill="#FAFAFA"/>
<path d="M41.4164 9.71067C41.472 9.85927 41.5178 10.0215 41.5537 10.1973C41.5864 10.3644 41.5982 10.5293 41.5894 10.6919C41.3444 10.7829 41.0573 10.8946 40.7281 11.0268C40.4044 11.1471 40.0692 11.2767 39.7225 11.4154C39.3726 11.5455 39.0374 11.675 38.717 11.804C38.3933 11.9243 38.1078 12.0403 37.8606 12.1521C37.8017 11.9948 37.7554 11.8178 37.7217 11.6212C37.6968 11.4214 37.6904 11.2446 37.7025 11.0907L41.4164 9.71067Z" fill="#FAFAFA"/>
<path fill-rule="evenodd" clip-rule="evenodd" d="M61.4166 52.6667C61.8002 52.6667 62.1111 52.9865 62.1111 53.381L62.1111 66.8946L66.4811 62.3997C66.7523 62.1208 67.192 62.1208 67.4632 62.3997C67.7344 62.6787 67.7344 63.1309 67.4632 63.4099L61.9077 69.1241C61.7774 69.2581 61.6008 69.3334 61.4166 69.3334C61.2324 69.3334 61.0558 69.2581 60.9256 69.1241L55.37 63.4099C55.0988 63.1309 55.0988 62.6787 55.37 62.3997C55.6412 62.1208 56.0809 62.1208 56.3521 62.3997L60.7222 66.8946L60.7222 53.381C60.7222 52.9865 61.0331 52.6667 61.4166 52.6667Z" fill="#FAFAFA"/>
</svg>
